<?xml version="1.0" encoding="UTF-8" standalone="no"?>
<!-- Created with Inkscape (http://www.inkscape.org/) -->

<svg
   version="1.1"
   id="svg1"
   width="205.9005"
   height="117.02578"
   viewBox="0 0 205.9005 117.02578"
   sodipodi:docname="ivabot.png"
   xmlns:inkscape="http://www.inkscape.org/namespaces/inkscape"
   xmlns:sodipodi="http://sodipodi.sourceforge.net/DTD/sodipodi-0.dtd"
   xmlns="http://www.w3.org/2000/svg"
   xmlns:svg="http://www.w3.org/2000/svg">
  <defs
     id="defs1" />
  <sodipodi:namedview
     id="namedview1"
     pagecolor="#ffffff"
     bordercolor="#000000"
     borderopacity="0.25"
     inkscape:showpageshadow="2"
     inkscape:pageopacity="0.0"
     inkscape:pagecheckerboard="0"
     inkscape:deskcolor="#d1d1d1" />
  <g
     inkscape:groupmode="layer"
     inkscape:label="Image"
     id="g1"
     transform="translate(-1.8204354,-5.5500398)">
    <g
       id="g8"
       transform="translate(-6.5465452,128.43224)">
      <path
         style="fill:#000000"
         d="M 62.875528,-7.4042205 C 47.574723,-11.60536 32.359613,-24.16343 25.777297,-38.023922 c -8.455759,-17.805425 -8.410336,-35.402605 0.13644,-52.858278 4.840773,-9.88665 16.082145,-21.3323 25.353729,-25.81447 12.427021,-6.00759 14.186336,-6.18553 61.158484,-6.18553 42.73828,0 42.73828,0 50.61831,2.4893 25.65242,8.1036 42.42662,32.480805 40.94991,59.5107 -1.38837,25.412935 -18.97508,46.93626 -43.7267,53.5145195 -7.6622,2.03639 -89.954672,2.00552 -97.391942,-0.0365 z m 93.491162,-1.91157 c 20.44384,-4.3335495 38.18372,-21.1980865 43.41169,-41.2696035 1.92299,-7.382846 1.90341,-20.285911 -0.0421,-27.755252 -4.75316,-18.248587 -19.69351,-33.594024 -39.18898,-40.251524 -7.15998,-2.44506 -81.301981,-3.14511 -92.279834,-0.87131 -26.783352,5.54753 -46,28.557911 -46,55.08128 0,14.838849 5.586758,28.100393 16.472687,39.10197 3.865022,3.90608 8.377313,7.79819 10.027313,8.64912 3,1.54716 3,1.54716 2.6865,-9.10196 -0.282426,-9.593548 -0.547908,-10.89694 -2.678292,-13.14913 -1.300635,-1.375 -3.485192,-4.75 -4.854572,-7.5 -9.795,-19.670403 -1.535743,-43.497095 18.343499,-52.918188 6.502865,-3.081812 6.502865,-3.081812 48.502869,-3.081812 42,0 42,0 48.58912,3.224301 7.93572,3.883242 14.97589,11.046245 18.73082,19.057634 2.3746,5.066341 2.68006,6.917213 2.68006,16.239092 0,9.864913 -0.20418,10.935779 -3.27411,17.171696 -4.05878,8.24454 -11.95918,15.750255 -19.97923,18.981097 -5.57667,2.24653 -6.90031,2.32997 -44.74666,2.8206 -39.000004,0.50558 -39.000004,0.50558 -47.601438,5.25558 -4.730789,2.6125 -9.455789,4.76989 -10.5,4.7942 -3.287595,0.0765 5.374278,4.0286 11.977355,5.4647895 8.985996,1.95449 80.557683,2.00029 89.723303,0.0574 z M 111.38756,-27.14375 c 37.86943,-0.26199 38.45971,-0.29743 44.37991,-2.664474 4.24587,-1.697607 7.77972,-4.178673 12.08751,-8.486465 7.80697,-7.806967 10.73913,-14.793258 10.73913,-25.587511 0,-10.794253 -2.93216,-17.780544 -10.73913,-25.587511 -4.32275,-4.322752 -7.8269,-6.779462 -12.08751,-8.474387 -5.85174,-2.327902 -6.86324,-2.395432 -40.93455,-2.733002 -22.914593,-0.22704 -37.155231,0.0406 -41.388665,0.777801 -12.742594,2.219027 -22.03721,9.220377 -27.370504,20.617364 -5.951695,12.718479 -4.564542,26.074487 3.902679,37.576393 4.451903,6.047482 4.451903,6.047482 3.760231,14.350912 -0.380419,4.56689 -0.382481,8.80372 -0.0046,9.41517 0.454428,0.73528 3.834303,-0.58991 9.981331,-3.91351 9.294241,-5.02525 9.294241,-5.02525 47.674148,-5.29078 z m -9.81305,-17.456814 c -3.605569,-1.795986 -7.986679,-9.068154 -7.004724,-11.627087 0.545778,-1.422273 2.464336,-1.654549 13.666304,-1.654549 13.03138,0 13.03138,0 13.03138,3.09563 0,6.12831 -6.80203,11.999395 -13.71788,11.840416 -1.53017,-0.03518 -4.21895,-0.779659 -5.97508,-1.65441 z m 11.2149,-1.726355 c 3.26153,-1.362756 7.65866,-7.708018 6.28996,-9.076716 -0.3006,-0.300602 -5.55563,-0.418753 -11.67783,-0.262557 -11.131285,0.283992 -11.131285,0.283992 -9.382679,3.783992 1.629762,3.262125 6.979649,6.994748 10.030729,6.998446 0.70516,8.55e-4 2.83808,-0.648569 4.73982,-1.443165 z m -45.555583,-4.375566 c -5.665421,-2.510938 -8.966361,-7.309436 -8.966361,-13.034187 0,-14.048661 17.925983,-19.345283 25.637974,-7.575298 2.585935,3.946637 2.301506,11.301652 -0.594323,15.368468 -3.510094,4.929472 -11.15626,7.422037 -16.07729,5.241017 z m 10.993806,-2.815256 c 7.890918,-4.66128 7.93311,-16.782687 0.07257,-20.847532 -7.172593,-3.709092 -15.583297,-0.43879 -18.043534,7.015799 -3.377379,10.233559 8.537591,19.404165 17.970968,13.831733 z m 59.280697,1.640943 c -9.91542,-6.045504 -9.40199,-19.209345 0.95948,-24.600416 9.04407,-4.705628 20.68836,3.691601 19.42526,14.008439 -0.59414,4.852871 -3.22321,8.55394 -7.69668,10.835021 -4.48935,2.289174 -8.66611,2.209167 -12.68806,-0.243044 z m 12.79187,-1.522329 c 3.47593,-1.79747 5.96727,-6.174168 5.96727,-10.483073 0,-7.070693 -5.28817,-12 -12.87361,-12 -9.91576,0 -15.19068,12.709885 -8.40668,20.255822 3.5031,3.896546 10.20106,4.870751 15.31302,2.227251 z m -138.266958,6.601219 c -3.2657763,-2.915707 -3.2657763,-2.915707 -3.599089,-14.388551 -0.3737339,-12.864169 0.7182432,-16.550636 5.659373,-19.105793 4.196679,-2.170187 5.466561,-0.824061 4.240488,4.49509 -1.486569,6.449278 -1.286381,17.65077 0.433452,24.253653 0.825,3.167389 1.5,6.186934 1.5,6.710099 0,2.031521 -5.129013,0.807855 -8.234224,-1.964498 z m 5.582469,-2.199554 c -1.658539,-4.813946 -2.194117,-18.062285 -1.042733,-25.793569 0.805513,-5.408831 0.805513,-5.408831 -1.5,-3.915791 -4.495088,2.910999 -5.9555865,7.454359 -5.577503,17.350653 0.3654633,9.565965 1.61106,12.703841 6.013375,15.148739 3.441593,1.911345 3.637318,1.652154 2.106861,-2.790032 z m 185.432209,4.562379 c -0.30409,-0.304086 0.10613,-2.666586 0.9116,-5.25 1.73009,-5.548994 2.15235,-17.153427 0.94789,-26.049437 -0.86006,-6.35232 -0.86006,-6.35232 1.5,-5.671785 1.29803,0.374294 3.59756,2.002437 5.11006,3.618096 2.69866,2.882725 2.75,3.172455 2.75,15.520576 0,12.583013 0,12.583013 -3.10576,15.484223 -2.82011,2.63438 -6.70372,3.758392 -8.11379,2.348327 z m 7.7314,-4.643573 c 2.28687,-2.717788 2.48815,-3.763757 2.48815,-12.929929 0,-10.562472 -1.26603,-14.875257 -4.94461,-16.843971 -2.84127,-1.520602 -3.00442,-1.338709 -1.98558,2.213754 1.37816,4.805391 1.10558,20.508784 -0.45793,26.380622 -1.29835,4.876019 -1.27301,5.100123 0.52372,4.630269 1.03846,-0.271563 3.00777,-1.824399 4.37625,-3.450745 z"
         id="path1" />
      <path
         style="fill:#a472f5;fill-opacity:1;stroke:#ff0000;stroke-width:0.35647"
         d="m 53.763654,-18.394637 c -0.120542,-0.314128 -0.0769,-3.241638 0.09699,-6.505576 0.594349,-11.156244 0.746076,-10.454109 -3.653986,-16.909288 -4.160211,-6.103304 -6.086112,-10.510235 -7.077434,-16.194893 -1.941764,-11.1349 2.237515,-23.521872 10.777957,-31.944804 6.644766,-6.553339 14.144739,-9.524672 25.942087,-10.277712 7.315451,-0.46696 60.718662,-0.13783 66.659882,0.41082 8.50671,0.785571 14.14704,3.598129 21.08965,10.516387 8.19763,8.168878 11.24088,16.025075 10.70319,27.630402 -0.4469,9.645471 -3.41232,15.985788 -11.0033,23.52594 -1.62702,1.616132 -3.93394,3.634675 -5.12648,4.485658 -2.70376,1.929361 -7.49892,4.234307 -10.31601,4.958721 -3.21509,0.826761 -13.6025,1.18697 -41.17228,1.427744 -13.626066,0.119001 -27.130598,0.364234 -30.010073,0.544964 -8.031367,0.504081 -9.506385,0.906707 -16.865727,4.603703 -5.364855,2.695059 -8.97679,4.299074 -9.680694,4.299074 -0.07953,0 -0.24323,-0.257015 -0.363772,-0.57114 z M 113.79411,-44.21516 c 4.58852,-2.258918 7.58391,-6.479671 7.58391,-10.686366 0,-2.931905 -0.24244,-3.00214 -10.85627,-3.145049 -10.18066,-0.137077 -15.051124,0.240924 -15.769903,1.223915 -0.768817,1.051418 -0.53427,2.694178 0.774609,5.425347 1.390076,2.900604 4.189206,6.096435 6.180714,7.056665 3.99549,1.926478 8.33706,1.97155 12.08694,0.125488 z m -36.182286,-7.015399 c 3.193828,-1.49808 5.627102,-3.825001 6.914501,-6.612283 0.95048,-2.05784 1.026462,-2.538985 1.026462,-6.499983 0,-3.960356 -0.07147,-4.413122 -0.963556,-6.104227 -2.766585,-5.244545 -8.88567,-8.315797 -14.572421,-7.314095 -7.935208,1.397759 -12.673083,7.901875 -11.709438,16.074622 0.516835,4.383325 3.586786,8.528757 7.947791,10.732105 2.069863,1.045776 2.368545,1.098106 5.573531,0.97651 2.897043,-0.109914 3.732837,-0.290951 5.78313,-1.252649 z m 72.019476,0.0018 c 3.21499,-1.518202 5.96965,-4.16369 7.20739,-6.921752 4.16104,-9.272026 -2.57685,-19.62384 -12.82483,-19.703527 -2.48645,-0.01933 -3.15877,0.122465 -5.24843,1.106948 -3.1895,1.502649 -5.69997,3.904878 -7.14201,6.834073 -1.06991,2.173292 -1.15542,2.611362 -1.15542,5.919183 0,3.12966 0.11835,3.824709 0.95536,5.610516 1.63666,3.491912 5.07701,6.621594 8.79202,7.998092 0.79949,0.29623 2.40542,0.446393 4.15495,0.388509 2.34387,-0.07755 3.28083,-0.296972 5.26097,-1.232042 z"
         id="path2" />
      <path
         style="fill:#a472f5;fill-opacity:1;stroke:#ff0000;stroke-width:0.35647"
         d="m 16.226333,-46.078685 c -4.456086,-2.223943 -5.95726,-5.453578 -6.3653883,-13.694533 -0.4827621,-9.747967 0.4072733,-14.090936 3.5271303,-17.210793 1.604044,-1.604044 3.007173,-2.451745 3.402996,-2.055922 0.08882,0.08882 -0.100558,2.148713 -0.42084,4.57754 -0.447928,3.396819 -0.539397,6.143797 -0.396309,11.901918 0.193666,7.793476 0.520456,10.576543 1.689156,14.385464 1.029922,3.356629 1.044854,3.334842 -1.436745,2.096326 z"
         id="path3" />
      <path
         style="fill:#a472f5;fill-opacity:1;stroke:#ff0000;stroke-width:0.35647"
         d="m 205.15456,-46.251975 c 0.003,-0.343103 0.31936,-1.826909 0.70222,-3.297347 1.07529,-4.129873 1.54304,-10.593297 1.33522,-18.450203 -0.12968,-4.902683 -0.36236,-7.674541 -0.76706,-9.137829 -0.3195,-1.155237 -0.49328,-2.188064 -0.38617,-2.29517 0.40587,-0.40587 3.35862,1.375543 4.27804,2.58097 1.94105,2.544842 2.40004,4.956501 2.58661,13.590657 0.20477,9.476656 -0.0497,11.136657 -2.10577,13.737807 -1.38541,1.752672 -4.23683,3.894937 -5.18428,3.894937 -0.2557,0 -0.46217,-0.28072 -0.45881,-0.623822 z"
         id="path4" />
      <path
         style="fill:#56466e;fill-opacity:1;stroke:#ff0000;stroke-width:0.35647"
         d="m 106.76275,-45.248558 c -3.95129,-1.206283 -9.26822,-6.226648 -9.26822,-8.751261 0,-1.08886 1.867653,-1.312173 11.47464,-1.372005 6.96713,-0.04339 9.62903,0.05474 9.94355,0.366552 0.66712,0.661384 -1.1333,3.980328 -3.41921,6.303046 -1.67429,1.70126 -2.32408,2.089345 -4.81677,2.876783 -1.58476,0.500626 -2.91321,0.896442 -2.9521,0.87959 -0.0389,-0.01685 -0.47175,-0.153069 -0.96189,-0.302705 z"
         id="path5" />
      <path
         style="fill:#333333;fill-opacity:1;stroke:#ff0000;stroke-width:0.35647"
         d="m 82.879262,-8.4389055 c -9.24986,-0.2899598 -15.413785,-0.8772191 -18.454898,-1.7582705 -3.519506,-1.019646 -8.03778,-2.761608 -9.311251,-3.589834 -0.846833,-0.550749 -0.835722,-0.561141 1.623586,-1.517988 1.361942,-0.529892 4.990332,-2.281429 8.063089,-3.892302 9.24637,-4.84735 9.563603,-4.886833 43.388842,-5.400281 28.84061,-0.437788 41.75445,-0.891774 44.98057,-1.581294 9.31586,-1.99108 19.14083,-10.134116 24.32669,-20.162218 2.99367,-5.788972 3.167,-6.613501 3.33465,-15.862912 0.18795,-10.369116 -0.18345,-12.86899 -2.6861,-18.080056 -2.97379,-6.192104 -8.39665,-12.520904 -13.97386,-16.308314 -2.93166,-1.990853 -8.23704,-4.464855 -10.71027,-4.994395 -3.10283,-0.66436 -18.64394,-1.04166 -42.95463,-1.04284 -24.026189,-0.001 -39.426938,0.37264 -42.598155,1.03393 -3.035684,0.63303 -10.116714,4.266148 -13.367623,6.858627 -6.642439,5.297095 -11.460214,12.684573 -13.613336,20.874409 -1.225946,4.663133 -1.531404,12.353616 -0.67226,16.925439 1.196811,6.368685 3.736816,12.064362 7.762828,17.407283 1.163018,1.543444 2.270015,3.32923 2.459991,3.968416 0.449207,1.511379 1.174915,16.333906 0.87736,17.920012 -0.125764,0.670377 -0.378149,1.311256 -0.560856,1.424175 -0.923928,0.571019 -4.809967,-2.402414 -10.637137,-8.139092 -12.846082,-12.646585 -18.579356,-27.054037 -17.472499,-43.907584 1.257572,-19.148396 13.255279,-36.902245 30.950088,-45.799025 6.413267,-3.22453 12.392965,-5.05736 18.620648,-5.70739 13.475758,-1.40658 72.038321,-0.8908 84.544621,0.74461 6.03868,0.78966 14.25478,4.67943 21.79932,10.32049 3.87565,2.89783 9.91242,9.090597 12.77824,13.108451 4.46684,6.262475 7.90808,14.570524 8.95899,21.629345 0.69557,4.672034 0.69281,14.606699 -0.005,19.249377 -2.86124,19.027197 -18.96139,37.209716 -38.68238,43.68551 -5.05803,1.6609074 -7.578,2.0100269 -17.81256,2.4677664 -6.90389,0.3087743 -52.142285,0.4022514 -60.956358,0.1259551 z"
         id="path6" />
      <path
         style="fill:#f8f7fa;fill-opacity:1;stroke:#ff0000;stroke-width:0.35647"
         d="m 68.370877,-52.68677 c -8.950561,-3.197122 -11.301242,-13.456009 -4.506249,-19.66625 2.684902,-2.453849 5.162872,-3.331908 8.855241,-3.137818 4.840218,0.254426 8.456186,2.546531 10.2206,6.478677 1.216232,2.710477 1.172446,7.147395 -0.09725,9.854416 -1.27989,2.728753 -2.762833,4.30033 -5.368059,5.6889 -2.83285,1.509894 -6.245905,1.803082 -9.104283,0.782075 z"
         id="path7" />
      <path
         style="fill:#f8f7fa;fill-opacity:1;stroke:#ff0000;stroke-width:0.35647"
         d="m 140.6564,-52.589513 c -2.43586,-0.681817 -3.88536,-1.575898 -5.56001,-3.429536 -2.08248,-2.305057 -2.81567,-4.285412 -2.81777,-7.610836 -10e-4,-2.382896 0.16629,-3.220491 1.02057,-5.094485 1.29029,-2.830433 4.06121,-5.464234 6.65513,-6.325794 4.31866,-1.434429 10.48559,0.175888 13.30994,3.475509 4.4044,5.145552 3.24396,13.682045 -2.37581,17.477039 -2.70551,1.827015 -6.88954,2.443699 -10.23205,1.508103 z"
         id="path8" />
    </g>
  </g>
</svg>
